<svg version="1.1" id="Layer_1" xmlns="http://www.w3.org/2000/svg" xmlns:xlink="http://www.w3.org/1999/xlink" x="0px" y="0px"
	 width="100%" viewBox="0 0 176 176" enable-background="new 0 0 176 176" xml:space="preserve">
<path fill="#000000" opacity="1.000000" stroke="none" 
	d="
M113.000000,177.000000 
	C75.333336,177.000000 38.166672,177.000000 1.000005,177.000000 
	C1.000003,118.333336 1.000003,59.666679 1.000002,1.000013 
	C59.666656,1.000009 118.333313,1.000009 176.999969,1.000004 
	C176.999985,59.666653 176.999985,118.333305 177.000000,176.999969 
	C155.833328,177.000000 134.666672,177.000000 113.000000,177.000000 
M111.334869,153.342148 
	C116.151947,152.424469 120.764084,150.551987 124.658104,147.856308 
	C152.276932,128.736908 158.537811,107.053749 153.103500,75.817802 
	C152.323303,71.333252 151.183899,66.417885 147.319855,62.504513 
	C144.640182,64.475273 142.625290,67.253784 138.833206,65.655045 
	C132.387817,62.937664 125.432129,62.712624 118.663376,63.489136 
	C105.990494,64.942970 107.286499,64.409081 107.312683,75.406876 
	C107.314270,76.073120 107.302574,76.739449 107.308426,77.405632 
	C107.362457,83.557938 108.742546,84.960220 114.845337,83.562500 
	C122.100967,81.900734 129.095444,83.592880 136.171707,84.357140 
	C139.015656,84.664291 140.762543,86.638954 140.604965,89.494019 
	C140.447433,92.348206 138.435013,93.963768 135.639465,94.196007 
	C133.665680,94.359993 131.602234,94.366203 129.675613,93.970993 
	C126.364723,93.291870 122.995399,92.957390 119.737854,93.434982 
	C107.163483,95.278519 106.552872,95.061195 106.345840,107.065781 
	C106.222351,114.226173 106.251457,121.389076 106.180878,128.550537 
	C106.148613,131.825058 104.605492,134.211151 101.258156,134.340027 
	C97.625496,134.479889 95.983398,131.992355 95.733002,128.569931 
	C95.623817,127.077728 95.646164,125.572899 95.667397,124.074631 
	C95.957397,103.607872 96.262512,83.141327 96.552856,62.674572 
	C96.657349,55.308418 97.413910,54.608673 104.975731,54.709358 
	C106.292549,54.726883 107.628731,54.487621 108.930649,54.235962 
	C119.591408,52.175270 130.115387,52.565338 140.503616,55.853756 
	C141.525970,56.177383 142.671677,56.953888 143.895233,55.408398 
	C143.345200,52.960396 140.863998,51.709255 139.356140,49.962185 
	C132.543457,42.068687 124.045059,36.331253 114.334213,32.549915 
	C103.765678,28.434593 92.843224,27.204487 81.649666,29.464321 
	C73.393845,31.131063 65.367134,33.230618 57.586212,36.841957 
	C50.230034,40.256161 46.302666,47.034821 40.270767,51.510906 
	C32.565075,57.229057 29.664034,65.310295 27.451221,73.823532 
	C25.118917,82.796463 26.817739,92.047569 26.414431,101.165642 
	C25.891191,112.995064 31.001997,122.982002 38.153946,131.573334 
	C47.508472,142.810562 58.712830,151.680603 73.878059,154.491074 
	C86.295929,156.792404 98.488441,157.705353 111.334869,153.342148 
z"/>
<path fill="#000000" opacity="1.000000" stroke="none" 
	d="
M72.046036,127.258102 
	C56.888493,134.353882 44.694012,132.239700 36.922272,121.164459 
	C31.489277,113.422050 30.950815,104.806702 33.173553,95.877380 
	C36.454830,82.695648 43.562767,71.807213 53.666656,62.922905 
	C59.346020,57.929066 65.975372,54.992863 73.845894,56.371864 
	C75.432899,56.649925 76.723190,56.096203 78.117332,55.448326 
	C82.379387,53.467705 85.238327,54.778793 86.030663,59.458317 
	C86.580017,62.702740 86.416969,66.085800 86.382851,69.404968 
	C86.358269,71.796318 85.061363,73.557472 82.747566,74.230858 
	C80.293312,74.945122 78.689346,73.532959 77.288994,71.680542 
	C72.632156,65.520340 68.177780,64.320160 62.354919,69.245430 
	C50.533985,79.244179 42.144405,91.334229 43.115429,107.860153 
	C43.733547,118.379951 53.381393,124.313042 63.078419,120.125732 
	C67.374992,118.270416 71.224266,115.617905 74.981659,112.852287 
	C77.719978,110.836754 80.393272,110.168549 82.831741,113.221497 
	C85.509293,116.573761 83.725159,119.074547 81.104881,121.318352 
	C78.440208,123.600166 75.529327,125.525635 72.046036,127.258102 
z"/>
</svg>